Coordinates
version=1
nRows=11
nColumns=40
inDegrees=yes

Units are S.I. units (second, meters, Newtons, ...)
If the header above contains a line with 'inDegrees', this indicates whether rotational values are in degrees (yes) or radians (no).

endheader
time	pelvis_tilt	pelvis_list	pelvis_rotation	pelvis_tx	pelvis_ty	pelvis_tz	hip_flexion_r	hip_adduction_r	hip_rotation_r	knee_angle_r	knee_angle_r_beta	ankle_angle_r	subtalar_angle_r	mtp_angle_r	hip_flexion_l	hip_adduction_l	hip_rotation_l	knee_angle_l	knee_angle_l_beta	ankle_angle_l	subtalar_angle_l	mtp_angle_l	lumbar_extension	lumbar_bending	lumbar_rotation	arm_flex_r	arm_add_r	arm_rot_r	elbow_flex_r	pro_sup_r	wrist_flex_r	wrist_dev_r	arm_flex_l	arm_add_l	arm_rot_l	elbow_flex_l	pro_sup_l	wrist_flex_l	wrist_dev_l
     15.15000000	    -74.28990774	     65.45087152	    -89.93920092	      0.82137608	      0.60536850	     -0.29615379	     45.00000012	     -9.99999999	      0.00000000	     60.00014062	      1.04720001	     -4.99999985	      0.00000000	      0.00000000	     45.00000012	     -9.99999999	      0.00000000	     60.00014062	      1.04720001	     -4.99999985	      0.00000000	      0.00000000	    -62.85883274	     87.83184047	     44.46795922	     -5.16269127	    -35.89798056	     28.82544082	     98.85496712	     85.77973825	      0.00000000	      0.00000000	      4.21631825	    -33.35830136	     41.59065082	     93.33295926	     89.21356675	      0.00000000	      0.00000000
     15.15500000	    -74.31448702	     65.47282696	    -89.93893757	      0.82132594	      0.60527012	     -0.29614497	     45.00000012	     -9.99999999	      0.00000000	     60.00014062	      1.04720001	     -4.99999985	      0.00000000	      0.00000000	     45.00000012	     -9.99999999	      0.00000000	     60.00014062	      1.04720001	     -4.99999985	      0.00000000	      0.00000000	    -62.85744912	     87.83721208	     44.46888201	     -5.15010744	    -35.86587658	     28.81963811	     98.85353386	     85.78255932	      0.00000000	      0.00000000	      4.20447269	    -33.35192837	     41.60069909	     93.33614665	     89.12562081	      0.00000000	      0.00000000
     15.16000000	    -74.29172854	     65.49889958	    -89.93916706	      0.82154853	      0.60521555	     -0.29633263	     45.00000012	     -9.99999999	      0.00000000	     60.00014062	      1.04720001	     -4.99999985	      0.00000000	      0.00000000	     45.00000012	     -9.99999999	      0.00000000	     60.00014062	      1.04720001	     -4.99999985	      0.00000000	      0.00000000	    -62.86354540	     87.83731671	     44.46606258	     -5.08473716	    -35.69457161	     28.70780470	     98.75637861	     85.80967177	      0.00000000	      0.00000000	      4.23649366	    -33.39623080	     41.58241241	     93.34857670	     89.21627115	      0.00000000	      0.00000000
     15.16500000	    -74.31536852	     65.52076718	    -89.93890616	      0.82151094	      0.60510168	     -0.29631169	     45.00000012	     -9.99999999	      0.00000000	     60.00014062	      1.04720001	     -4.99999985	      0.00000000	      0.00000000	     45.00000012	     -9.99999999	      0.00000000	     60.00014062	      1.04720001	     -4.99999985	      0.00000000	      0.00000000	    -62.86375132	     87.84953703	     44.46610188	     -5.07484366	    -35.67636758	     28.69717057	     98.75203414	     85.81205280	      0.00000000	      0.00000000	      4.22578221	    -33.39720848	     41.59170596	     93.34990077	     89.12495321	      0.00000000	      0.00000000
     15.17000000	    -74.29584111	     65.52628678	    -89.93916585	      0.82170708	      0.60500156	     -0.29636784	     45.00000012	     -9.99999999	      0.00000000	     60.00014062	      1.04720001	     -4.99999985	      0.00000000	      0.00000000	     45.00000012	     -9.99999999	      0.00000000	     60.00014062	      1.04720001	     -4.99999985	      0.00000000	      0.00000000	    -62.87938308	     87.85708625	     44.46167787	     -5.05593006	    -35.53800877	     28.52895190	     98.66438198	     85.85464853	      0.00000000	      0.00000000	      4.27441935	    -33.44792624	     41.60720277	     93.37445364	     89.22862522	      0.00000000	      0.00000000
     15.17500000	    -74.26677666	     65.53486453	    -89.93912770	      0.82194144	      0.60488760	     -0.29634125	     45.00000012	     -9.99999999	      0.00000000	     60.00014062	      1.04720001	     -4.99999985	      0.00000000	      0.00000000	     45.00000012	     -9.99999999	      0.00000000	     60.00014062	      1.04720001	     -4.99999985	      0.00000000	      0.00000000	    -62.89298742	     87.87905536	     44.46094504	     -5.04039613	    -35.49462362	     28.39291800	     98.65094979	     85.87877939	      0.00000000	      0.00000000	      4.33092888	    -33.45088563	     41.62302510	     93.37424389	     89.23382978	      0.00000000	      0.00000000
     15.18000000	    -74.29064461	     65.55567924	    -89.93897044	      0.82184665	      0.60480363	     -0.29631027	     45.00000012	     -9.99999999	      0.00000000	     60.00014062	      1.04720001	     -4.99999985	      0.00000000	      0.00000000	     45.00000012	     -9.99999999	      0.00000000	     60.00014062	      1.04720001	     -4.99999985	      0.00000000	      0.00000000	    -62.89479826	     87.89032886	     44.45948298	     -5.05230066	    -35.48507263	     28.39171034	     98.64548784	     85.88141973	      0.00000000	      0.00000000	      4.31540196	    -33.45785423	     41.63656166	     93.37210111	     89.12476967	      0.00000000	      0.00000000
     15.18500000	    -74.30398260	     65.57916039	    -89.93898404	      0.82182277	      0.60475198	     -0.29633929	     45.00000012	     -9.99999999	      0.00000000	     60.00014062	      1.04720001	     -4.99999985	      0.00000000	      0.00000000	     45.00000012	     -9.99999999	      0.00000000	     60.00014062	      1.04720001	     -4.99999985	      0.00000000	      0.00000000	    -62.89714489	     87.90412155	     44.45849760	     -5.05778656	    -35.47454454	     28.38042830	     98.63390598	     85.88294963	      0.00000000	      0.00000000	      4.31103307	    -33.47522700	     41.64213623	     93.36980428	     89.12461282	      0.00000000	      0.00000000
     15.19000000	    -74.26868852	     65.59456043	    -89.93918128	      0.82207145	      0.60468882	     -0.29638352	     45.00000012	     -9.99999999	      0.00000000	     60.00014062	      1.04720001	     -4.99999985	      0.00000000	      0.00000000	     45.00000012	     -9.99999999	      0.00000000	     60.00014062	      1.04720001	     -4.99999985	      0.00000000	      0.00000000	    -62.90535457	     87.92702237	     44.46580198	     -5.06198448	    -35.37820674	     28.24558734	     98.56207031	     85.90348498	      0.00000000	      0.00000000	      4.38047516	    -33.51164464	     41.66366781	     93.36061311	     89.22235294	      0.00000000	      0.00000000
     15.19500000	    -74.29937186	     65.61500951	    -89.93899810	      0.82203838	      0.60466214	     -0.29642436	     45.00000012	     -9.99999999	      0.00000000	     60.00014062	      1.04720001	     -4.99999985	      0.00000000	      0.00000000	     45.00000012	     -9.99999999	      0.00000000	     60.00014062	      1.04720001	     -4.99999985	      0.00000000	      0.00000000	    -62.90753861	     87.92771748	     44.46402765	     -5.07596020	    -35.37654615	     28.23910103	     98.55645065	     85.90604686	      0.00000000	      0.00000000	      4.37366113	    -33.51804326	     41.67436805	     93.35987820	     89.12500478	      0.00000000	      0.00000000
     15.20000000	    -74.30951473	     65.63599466	    -89.93898382	      0.82204335	      0.60464414	     -0.29646014	     45.00000012	     -9.99999999	      0.00000000	     60.00014062	      1.04720001	     -4.99999985	      0.00000000	      0.00000000	     45.00000012	     -9.99999999	      0.00000000	     60.00014062	      1.04720001	     -4.99999985	      0.00000000	      0.00000000	    -62.91057522	     87.93920159	     44.46264873	     -5.09645796	    -35.37244500	     28.23392497	     98.54676699	     85.90833241	      0.00000000	      0.00000000	      4.37543729	    -33.53634683	     41.67872451	     93.35834451	     89.12539518	      0.00000000	      0.00000000
